{"title":"Unreal Estate - S01E02 - Country Estates","uid":15960044,"size":347114341,"categoryP":"video","categoryS":"tv_shows","magnet":"?xt=urn:btih:a1b3e7d226d20c29783ffff40771e213d7814e9d&amp;dn=Unreal+Estate+-+S01E02+-+Country+Estates&amp;tr=udp%3A%2F%2Ftracker.leechers-paradise.org%3A6969&amp;tr=udp%3A%2F%2Fzer0day.ch%3A1337&amp;tr=udp%3A%2F%2Fopen.demonii.com%3A1337&amp;tr=udp%3A%2F%2Ftracker.coppersurfer.tk%3A6969&amp;tr=udp%3A%2F%2Fexodus.desync.com%3A6969","seeders":23,"leechers":10,"uploader":"Bullrout","files":1,"time":1475654646,"description":"Unreal Estate - S01E02 - Country Estates\r\n\r\nKate explores a beautiful and bizarre $20 million French chateau on the Bellarine Peninsula, while Cam gets a taste of the good life in Sydney's semi-rural money belt, where everyone gets to live their dreams.\r\n\r\nComplete name : Unreal Estate - S01E02 - Country Estates.mp4\r\nFormat : MPEG-4\r\nFormat profile : Base Media / Version 2\r\nCodec ID : mp42 (mp42/isom/avc1)\r\nFile size : 331 MiB\r\nDuration : 41 min 48 s\r\nOverall bit rate mode : Variable\r\nOverall bit rate : 1 107 kb/s\r\n\r\nVideo\r\nID : 2\r\nFormat : AVC\r\nFormat/Info : Advanced Video Codec\r\nFormat profile :   \r\nFormat settings, CABAC : Yes\r\nFormat settings, ReFrames : 3 frames\r\nCodec ID : avc1\r\nCodec ID/Info : Advanced Video Coding\r\nDuration : 41 min 48 s\r\nBit rate mode : Variable\r\nBit rate : 975 kb/s\r\nMaximum bit rate : 1 000 kb/s\r\nWidth : 720 pixels\r\nHeight : 404 pixels\r\nDisplay aspect ratio : 16:9\r\nOriginal display aspect ratio : 16:9\r\nFrame rate mode : Constant\r\nFrame rate : 25.000 FPS\r\nStandard : PAL\r\nColor space : YUV\r\nChroma subsampling : 4:2:0\r\nBit depth : 8 bits\r\nScan type : Progressive\r\nBits/(Pixel*Frame) : 0.134\r\nStream size : 292 MiB (88%)\r\nWriting library : x264 core 112\r\nColor range : Limited\r\nColor primaries : BT.601 PAL\r\nTransfer characteristics : BT.470 System B, BT.470 System G\r\nMatrix coefficients : BT.601\r\n\r\nAudio\r\nID : 1\r\nFormat : AAC\r\nFormat/Info : Advanced Audio Codec\r\nFormat profile : LC\r\nCodec ID : 40\r\nDuration : 41 min 48 s\r\nBit rate mode : Variable\r\nBit rate : 128 kb/s\r\nMaximum bit rate : 576 kb/s\r\nChannel(s) : 2 channels\r\nChannel positions : Front: L R\r\nSampling rate : 48.0 kHz\r\nFrame rate : 46.875 FPS (1024 spf)\r\nCompression mode : Lossy\r\nStream size : 38.3 MiB (12%)","torrent":{"xt":"urn:btih:a1b3e7d226d20c29783ffff40771e213d7814e9d","amp;dn":"Unreal+Estate+-+S01E02+-+Country+Estates","amp;tr":["udp%3A%2F%2Ftracker.leechers-paradise.org%3A6969","udp%3A%2F%2Fzer0day.ch%3A1337","udp%3A%2F%2Fopen.demonii.com%3A1337","udp%3A%2F%2Ftracker.coppersurfer.tk%3A6969","udp%3A%2F%2Fexodus.desync.com%3A6969"],"infoHash":"a1b3e7d226d20c29783ffff40771e213d7814e9d","infoHashBuffer":{"type":"Buffer","data":[161,179,231,210,38,210,12,41,120,63,255,244,7,113,226,19,215,129,78,157]},"announce":[],"urlList":[]}}